   Pocahontas-1(1995)1080p BDRip In[Hindi-Eng(Dts)-Cantonese-Mandarin]-DGrea8


Summary:-


Capt. John Smith leads a rag-tag band of English sailors & soldiers to the New World to plunder its riches for England (or, more precisely, for Governor Ratcliffe, who comes along for the ride). Meanwhile, in this "New World," Chief Powhatan has pledged his daughter, Pocahontas, to be married to the village's greatest warrior. Pocahontas, however, has other ideas. She has seen a vision of a spinning arrow, a vision she believes tells her change is coming. Her life does indeed change when the English ship lands near her village. Between Ratcliffe, who believes the "savages" are hiding the gold he expected to be plentiful, and Powhatan, who believes these pale newcomers will destroy their land, Smith and Pocahontas have a difficult time preventing all-out war, and saving their love for each other.


Cast:-

Irene Bedard...........Pocahontas (voice)
Judy Kuhn..............Pocahontas (singing voice)
Mel Gibson.............John Smith (voice)
David Ogden Stiers.....Governor Ratcliffe / Wiggins (voice)
John Kassir............Meeko (voice)
Russell Means..........Powhatan (voice)
Christian Bale.........Thomas (voice)
Linda Hunt.............Grandmother Willow (voice)
Danny Mann.............Percy (voice)
Billy Connolly.........Ben (voice)
Joe Baker..............Lon (voice)
Frank Welker...........Flit (voice)
Michelle St. John......Nakoma (voice)
James Apaumut Fall.....Kocoum (voice)
Gordon Tootoosis.......Kekata (voice)

Directors: Mike Gabriel, Eric Goldberg
Writers: Carl Binder, Susannah Grant
Stars: Mel Gibson, Linda Hunt, Christian Bale


Video & Audio Info.:-

Video

Bit rate : 2102 Kbps
Width : 1920 pixels
Height : 1072 pixels
Display aspect ratio : 16:9
Frame rate : 25.000 fps
Original frame rate : 23.976 fps
Color space : YUV
Chroma subsampling : 4:2:0
Bit depth : 8 bits
Stream size : 1.18 GiB (56%)

Audio #1
ID : 2
Format : DTS
Format/Info : Digital Theater Systems
Muxing mode : Header stripping
Codec ID : A_DTS
Duration : 1h 17mn
Bit rate mode : Constant
Bit rate : 755 Kbps
Channel(s) : 6 channels
Channel positions : Front: L C R, Side: L R, LFE
Sampling rate : 48.0 KHz
Bit depth : 24 bits
Compression mode : Lossy
Stream size : 420 MiB (20%)
Title : Dts
Language : English

Audio #2
ID : 3
Format : MPEG Audio
Format version : Version 1
Format profile : Layer 2
Muxing mode : Header stripping
Codec ID : A_MPEG/L2
Codec ID/Hint : MP2
Duration : 1h 17mn
Bit rate mode : Constant
Bit rate : 224 Kbps
Channel(s) : 2 channels
Sampling rate : 48.0 KHz
Compression mode : Lossy
Delay relative to video : 24ms
Stream size : 125 MiB (6%)
Title : Hindi
Language : Hindi

Audio #3
ID : 4
Format : AC-3
Format/Info : Audio Coding 3
Format profile : Dolby Digital
Mode extension : CM (complete main)
Muxing mode : Header stripping
Codec ID : A_AC3
Duration : 1h 17mn
Bit rate mode : Constant
Bit rate : 320 Kbps
Channel(s) : 2 channels
Channel positions : Front: L R
Sampling rate : 48.0 KHz
Bit depth : 16 bits
Compression mode : Lossy
Stream size : 178 MiB (8%)
Title : Cantonese
Language : Chinese

Audio #4
ID : 5
Format : AC-3
Format/Info : Audio Coding 3
Format profile : Dolby Digital
Mode extension : CM (complete main)
Muxing mode : Header stripping
Codec ID : A_AC3
Duration : 1h 17mn
Bit rate mode : Constant
Bit rate : 320 Kbps
Channel(s) : 2 channels
Channel positions : Front: L R
Sampling rate : 48.0 KHz
Bit depth : 16 bits
Compression mode : Lossy
Stream size : 178 MiB (8%)
Title : Mandarin
Language : Chinese

Subtitle Languages : Chinese,English


Screen Shoots:-
   
http://www.shotpix.com/images/01143928439108961306.jpg
 
http://www.shotpix.com/images/20878300041960423455.jpg
 
http://www.shotpix.com/images/63034759489317857988.jpg
 
http://www.shotpix.com/images/27845378162641671692.jpg
 
http://www.shotpix.com/images/04186796555001870375.jpg

Note:--

 Check The Sample Video In This Torrent	